<?xml version="1.0" standalone="no"?>
<!DOCTYPE svg PUBLIC "-//W3C//DTD SVG 20010904//EN"
 "http://www.w3.org/TR/2001/REC-SVG-20010904/DTD/svg10.dtd">
<svg version="1.0" xmlns="http://www.w3.org/2000/svg"
 width="534.000000pt" height="534.000000pt" viewBox="0 0 534.000000 534.000000"
 preserveAspectRatio="xMidYMid meet">
<metadata>
Created by potrace 1.14, written by Peter Selinger 2001-2017
</metadata>
<g transform="translate(0.000000,534.000000) scale(0.100000,-0.100000)"
fill="#000000" stroke="none">
<path d="M779 5336 c-2 -2 -24 -6 -49 -9 -68 -9 -193 -51 -257 -88 -59 -34
-155 -107 -186 -143 -10 -12 -28 -32 -41 -46 -73 -83 -136 -213 -173 -355 -4
-16 -9 -871 -10 -1900 l-2 -1870 24 -90 c42 -162 102 -271 205 -373 56 -55
109 -102 115 -102 1 0 28 -15 58 -34 31 -18 85 -44 119 -57 35 -12 66 -28 70
-33 5 -7 8 -7 8 1 0 9 7 10 26 3 14 -6 37 -10 50 -10 18 0 23 -4 18 -12 -6
-10 -5 -10 8 -1 8 7 18 10 21 7 8 -8 3580 -7 3680 1 43 3 88 10 101 15 16 6
28 5 36 -3 9 -9 11 -9 6 0 -7 13 51 36 67 26 6 -3 7 -1 3 5 -4 8 0 12 11 12
11 0 23 4 29 10 19 19 108 59 117 53 6 -3 7 -1 4 4 -4 6 15 28 41 49 42 34
110 102 152 151 8 9 33 54 56 100 23 45 43 80 45 78 2 -2 5 10 5 27 1 17 5 33
10 37 5 3 9 11 9 16 1 6 5 35 9 65 5 30 10 64 12 75 1 11 3 20 3 20 4 0 -1
3640 -5 3670 -42 318 -261 575 -572 673 l-87 27 -1866 3 c-1026 1 -1867 1
-1870 -2z"/>
<path d="M500 266 c0 -2 8 -10 18 -17 15 -13 16 -12 3 4 -13 16 -21 21 -21 13z"/>
<path d="M1519 173 c-13 -16 -12 -17 4 -4 16 13 21 21 13 21 -2 0 -10 -8 -17
-17z"/>
<path d="M1999 173 c-13 -16 -12 -17 4 -4 16 13 21 21 13 21 -2 0 -10 -8 -17
-17z"/>
<path d="M2479 173 c-13 -16 -12 -17 4 -4 16 13 21 21 13 21 -2 0 -10 -8 -17
-17z"/>
<path d="M2959 173 c-13 -16 -12 -17 4 -4 9 7 17 15 17 17 0 8 -8 3 -21 -13z"/>
<path d="M3439 173 c-13 -16 -12 -17 4 -4 16 13 21 21 13 21 -2 0 -10 -8 -17
-17z"/>
<path d="M3919 173 c-13 -16 -12 -17 4 -4 9 7 17 15 17 17 0 8 -8 3 -21 -13z"/>
<path d="M4399 173 c-13 -16 -12 -17 4 -4 9 7 17 15 17 17 0 8 -8 3 -21 -13z"/>
</g>
</svg>
